# xmcd
#
# Track frame offsets:
#	150
#	13052
#	25965
#	39250
#	55045
#	68365
#	82302
#	104862
#	122147
#	137765
#	154735
#	171845
#	190745
#	205600
#
# Disc length: 2906 seconds
#
# Revision: 1
# Processed by: cddbd v1.5.2PL0 Copyright (c) Steve Scherf et al.
# Submitted via: audiograbber 1.83.01
#
DISCID=bb0b580e
DTITLE=Jamie Cutler Harper - Flavors Of Love Jamie Cutler Harper
DYEAR=1994
DGENRE=Country
TTITLE0=Making Up For Lost Love
TTITLE1=Mama´s Ring
TTITLE2=I Don´t Wanna Be Lonely
TTITLE3=That Ole House
TTITLE4=Big City Girl
TTITLE5=Different Drum
TTITLE6=Summertime
TTITLE7=Why Don´t We Get It Over With
TTITLE8=New Baby Blues
TTITLE9=Field Filled With Flowers
TTITLE10=You Belong To Me
TTITLE11=Astrology Lady
TTITLE12=I Don´t Need Your Love
TTITLE13=I Can´t Make You Fall In Love With Me
EXTD=
EXTT0=
EXTT1=
EXTT2=
EXTT3=
EXTT4=
EXTT5=
EXTT6=
EXTT7=
EXTT8=
EXTT9=
EXTT10=
EXTT11=
EXTT12=
EXTT13=
PLAYORDER=
